<svg width="154" height="170" viewBox="0 0 154 170" fill="none" xmlns="http://www.w3.org/2000/svg">
<path d="M75.7217 108.27C75.6053 100.195 82.3261 93.6967 90.3925 94.0845L103.827 94.7303C116.075 95.3192 121.702 110.254 112.886 118.779L99.6458 131.581C90.8301 140.105 76.0924 133.98 75.9156 121.718L75.7217 108.27Z" fill="#7D8EE7"/>
<path d="M88.8487 58.4929C85.1447 51.3168 88.2636 42.5035 95.6569 39.2545L107.97 33.8436C119.197 28.9101 130.891 39.7707 126.8 51.3312L120.656 68.6936C116.565 80.254 100.642 81.3413 95.0177 70.4444L88.8487 58.4929Z" fill="#7D8EE7"/>
<path d="M34.7217 78.2701C34.6053 70.1953 41.3261 63.6967 49.3925 64.0845L62.8266 64.7303C75.0754 65.3192 80.7018 80.2544 71.8861 88.7786L58.6458 101.581C49.8301 110.105 35.0924 103.98 34.9156 91.7184L34.7217 78.2701Z" fill="#7D8EE7"/>
</svg>
